<svg width="126" height="110" viewBox="0 0 126 110" fill="none" xmlns="http://www.w3.org/2000/svg">
    <path d="M3.2 94.773 0 79.903h3.349l1.557 7.923c.028.1.05.234.064.404.014.17.028.283.042.34a3.64 3.64 0 0 0 .043-.361c.014-.17.036-.312.064-.425l1.898-7.88h2.837l1.92 7.901a7.35 7.35 0 0 1 .128.807c.014-.056.028-.134.042-.233l.043-.276.043-.255 1.536-7.945h3.348l-3.22 14.87h-3.072l-2.09-8.263a12.585 12.585 0 0 1-.128-.829c-.057.481-.1.75-.128.807L6.27 94.773H3.199zM22.606 95.028c-1.606 0-2.872-.503-3.796-1.509-.924-1.005-1.387-2.4-1.387-4.184 0-1.742.463-3.123 1.387-4.143.938-1.02 2.204-1.529 3.796-1.529 1.45 0 2.631.439 3.541 1.317.91.878 1.365 2.153 1.365 3.824 0 .694-.028 1.225-.085 1.593h-6.975c.029.68.242 1.19.64 1.53.398.325.903.488 1.514.488.996 0 1.813-.383 2.453-1.147l1.792 1.784c-1.095 1.317-2.51 1.976-4.245 1.976zm-2.133-6.947h4.074c-.156-1.203-.846-1.805-2.069-1.805-.554 0-1.01.163-1.365.488-.355.312-.568.75-.64 1.317zM36.243 94.773v-.807c-.654.708-1.556 1.062-2.708 1.062-1.209 0-2.197-.305-2.965-.914-.754-.623-1.13-1.508-1.13-2.655 0-1.119.44-1.976 1.322-2.57.881-.61 1.912-.914 3.093-.914 1.024 0 1.82.128 2.389.383v-.595c0-.496-.157-.871-.47-1.126-.313-.27-.746-.404-1.3-.404-1.181 0-2.347.383-3.499 1.147l-.96-2.358c1.337-.906 2.894-1.359 4.672-1.359 3.085 0 4.628 1.416 4.628 4.248v6.862h-3.072zm-2.111-2.337c.768 0 1.472-.255 2.111-.765v-.977a6.455 6.455 0 0 0-1.855-.255c-1.28 0-1.92.347-1.92 1.041 0 .637.555.956 1.664.956zM45.591 95.028c-1.834 0-2.752-.992-2.752-2.974v-5.438h-1.493v-2.698h1.494V80.9l3.07-1.465v4.482h2.369v2.698H45.91v5.14c0 .199.057.354.17.468a.71.71 0 0 0 .448.148c.626 0 1.252-.141 1.877-.424l-.34 2.591c-.67.326-1.494.489-2.475.489zM50.867 94.773V80.859l3.093-1.423v5.48c.697-.835 1.685-1.253 2.965-1.253 1.01 0 1.89.319 2.645.956.753.637 1.13 1.671 1.13 3.101v7.053h-3.093v-5.82c0-.808-.135-1.396-.405-1.764-.256-.368-.697-.552-1.322-.552-1.28 0-1.92.758-1.92 2.273v5.863h-3.093zM68.452 95.028c-1.607 0-2.872-.503-3.797-1.509-.924-1.005-1.386-2.4-1.386-4.184 0-1.742.462-3.123 1.386-4.143.939-1.02 2.204-1.529 3.797-1.529 1.45 0 2.63.439 3.54 1.317.91.878 1.366 2.153 1.366 3.824 0 .694-.029 1.225-.086 1.593h-6.974c.028.68.242 1.19.64 1.53.398.325.903.488 1.514.488.995 0 1.813-.383 2.453-1.147l1.792 1.784c-1.095 1.317-2.51 1.976-4.245 1.976zm-2.133-6.947h4.074c-.156-1.203-.846-1.805-2.069-1.805-.555 0-1.01.163-1.365.488-.356.312-.569.75-.64 1.317zM75.925 94.773V83.918h3.093v.977c.142-.283.398-.56.768-.828.37-.27.803-.404 1.3-.404.854 0 1.572.305 2.155.913l-.405 2.804c-.598-.495-1.245-.743-1.941-.743-1.252 0-1.877.75-1.877 2.252v5.884h-3.093zM94.202 94.773l-1.11-2.89h-5.609l-1.11 2.89h-3.54l5.887-14.87h3.114l5.908 14.87h-3.54zm-2.197-5.863-1.28-3.208c-.2-.481-.348-.899-.448-1.253-.057.24-.206.659-.448 1.253l-1.28 3.208h3.456zM105.001 95.028c-.939 0-1.657-.319-2.154-.956v3.547L99.754 99V83.919h3.093v.743c.483-.665 1.215-.998 2.197-.998 1.365 0 2.452.496 3.263 1.487.825.977 1.237 2.38 1.237 4.206 0 1.742-.427 3.123-1.28 4.142-.853 1.02-1.941 1.53-3.263 1.53zm-.491-2.974c.612 0 1.088-.234 1.429-.701.342-.482.512-1.147.512-1.997 0-1.813-.647-2.72-1.941-2.72-.696 0-1.251.22-1.663.66v4.057c.085.184.277.347.575.488.299.142.662.213 1.088.213zM117.457 95.028c-.939 0-1.657-.319-2.154-.956v3.547L112.21 99V83.919h3.093v.743c.483-.665 1.215-.998 2.197-.998 1.365 0 2.452.496 3.263 1.487.825.977 1.237 2.38 1.237 4.206 0 1.742-.427 3.123-1.28 4.142-.853 1.02-1.941 1.53-3.263 1.53zm-.491-2.974c.612 0 1.088-.234 1.429-.701.342-.482.512-1.147.512-1.997 0-1.813-.647-2.72-1.941-2.72-.696 0-1.251.22-1.663.66v4.057c.085.184.277.347.575.488.299.142.662.213 1.088.213z" fill="#fff"/>
    <g filter="url(#09pkseveoa)">
        <path fill-rule="evenodd" clip-rule="evenodd" d="M85.413 56.44a23.382 23.382 0 0 1-6.642 3.713c-12.166 4.403-25.63-1.865-30.072-14.002a23.232 23.232 0 0 1 .822-17.996c-7.626 6.086-10.883 16.566-7.344 26.237C46.62 66.53 60.083 72.798 72.25 68.394a23.282 23.282 0 0 0 13.164-11.953z" fill="#FBFF22"/>
    </g>
    <path fill-rule="evenodd" clip-rule="evenodd" d="M85.413 56.44a23.382 23.382 0 0 1-6.642 3.713c-12.166 4.403-25.63-1.865-30.072-14.002a23.232 23.232 0 0 1 .822-17.996c-7.626 6.086-10.883 16.566-7.344 26.237C46.62 66.53 60.083 72.798 72.25 68.394a23.282 23.282 0 0 0 13.164-11.953z" fill="#FBFF22"/>
    <defs>
        <filter id="09pkseveoa" x=".749" y="-11.845" width="124.665" height="121.647" filterUnits="userSpaceOnUse" color-interpolation-filters="sRGB">
            <feFlood flood-opacity="0" result="BackgroundImageFix"/>
            <feBlend in="SourceGraphic" in2="BackgroundImageFix" result="shape"/>
            <feGaussianBlur stdDeviation="20" result="effect1_foregroundBlur_8560_13090"/>
        </filter>
    </defs>
</svg>
